{"title":"The Emeryville Experiments 2016 Movies HDRip XviD New +Sample ☻r","uid":15605660,"size":739509369,"categoryP":"video","categoryS":"movies","magnet":"?xt=urn:btih:3c0e62e4475f3156645877a654fedbc2b67f2497&amp;dn=The+Emeryville+Experiments+2016+Movies+HDRip+XviD+New+%2BSample+%E2%98%BBr&amp;tr=udp%3A%2F%2Ftracker.leechers-paradise.org%3A6969&amp;tr=udp%3A%2F%2Fzer0day.ch%3A1337&amp;tr=udp%3A%2F%2Fopen.demonii.com%3A1337&amp;tr=udp%3A%2F%2Ftracker.coppersurfer.tk%3A6969&amp;tr=udp%3A%2F%2Fexodus.desync.com%3A6969","seeders":1,"leechers":2,"uploader":"basicssom","files":2,"time":1471719263,"description":"----------------------------------------------------------------\r\nThe Emeryville Experiments 2016 English Movies HDRip XviD AAC New Source with Sample ☻rDX☻\r\n\r\nSCREEN SHOTS &amp; POSTER:\r\n  \nhttp://postimage.co.nr/2016/8/bankaccount/index.htm  \nhttp://postimage.co.nr/2016/8/bankaccount/1.html  \nhttp://postimage.co.nr/2016/8/bankaccount/2.html  \nhttp://postimage.co.nr/2016/8/bankaccount/3.html  \nhttp://postimage.co.nr/2016/8/bankaccount/4.html  \nhttp://postimage.co.nr/2016/8/bankaccount/5.html  \nhttp://postimage.co.nr/2016/8/bankaccount/6.html  \nhttp://postimage.co.nr/2016/8/bankaccount/7.html  \nhttp://postimage.co.nr/2016/8/bankaccount/8.html  \nhttp://postimage.co.nr/2016/8/bankaccount/9.html  \nhttp://postimage.co.nr/2016/8/bankaccount/10.html\r\n\r\nFormat                                   : Matroska\r\nFormat version                           : Version 4 / Version 2\r\nFile size                                : 699 MiB\r\nDuration                                 : 1 h 22 min\r\nOverall bit rate mode                    : Constant\r\nOverall bit rate                         : 1 180 kb/s\r\nMovie name                               : The Emeryville Experiments 2016 English Movies HDRip XviD AAC New Source ☻rDX☻\r\n\r\nVideo\r\nID                                       : 2\r\nFormat                                   : AVC\r\nFormat/Info                              : Advanced Video Codec\r\nFormat profile                           :   \r\nFormat settings, CABAC                   : Yes\r\nFormat settings, ReFrames                : 2 frames\r\nFormat settings, GOP                     : M=1, N=12\r\nCodec ID                                 : V_MPEG4/ISO/AVC\r\nDuration                                 : 1 h 22 min\r\nBit rate mode                            : Constant\r\nBit rate                                 : 797 kb/s\r\nWidth                                    : 720 pixels\r\nHeight                                   : 304 pixels\r\nDisplay aspect ratio                     : 2.35:1\r\nFrame rate mode                          : Constant\r\nFrame rate                               : 24.000 FPS\r\nColor space                              : YUV\r\nChroma subsampling                       : 4:2:0\r\nBit depth                                : 8 bits\r\nScan type                                : Progressive\r\nBits/(Pixel*Frame)                       : 0.152\r\nStream size                              : 458 MiB (65%)\r\nTitle                                    : ☻rDX☻\r\nDefault                                  : Yes\r\nForced                                   : No\r\n\r\nAudio\r\nID                                       : 1\r\nFormat                                   : AC-3\r\nFormat/Info                              : Audio Coding 3\r\nMode extension                           : CM (complete main)\r\nFormat settings, Endianness              : Big\r\nCodec ID                                 : A_AC3\r\nDuration                                 : 1 h 22 min\r\nBit rate mode                            : Constant\r\nBit rate                                 : 384 kb/s\r\nChannel(s)                               : 6 channels\r\nChannel positions                        : Front: L C R, Side: L R, LFE\r\nSampling rate                            : 48.0 kHz\r\nFrame rate                               : 31.250 FPS (1536 spf)\r\nCompression mode                         : Lossy\r\nStream size                              : 228 MiB (33%)\r\nTitle                                    : ☻rDX☻\r\nDefault                                  : Yes\r\nForced                                   : No\r\n\r\nIMDB \nhttp://www.imdb.com/title/tt4513074/","torrent":{"xt":"urn:btih:3c0e62e4475f3156645877a654fedbc2b67f2497","amp;dn":"The+Emeryville+Experiments+2016+Movies+HDRip+XviD+New+%2BSample+%E2%98%BBr","amp;tr":["udp%3A%2F%2Ftracker.leechers-paradise.org%3A6969","udp%3A%2F%2Fzer0day.ch%3A1337","udp%3A%2F%2Fopen.demonii.com%3A1337","udp%3A%2F%2Ftracker.coppersurfer.tk%3A6969","udp%3A%2F%2Fexodus.desync.com%3A6969"],"infoHash":"3c0e62e4475f3156645877a654fedbc2b67f2497","infoHashBuffer":{"type":"Buffer","data":[60,14,98,228,71,95,49,86,100,88,119,166,84,254,219,194,182,127,36,151]},"announce":[],"urlList":[]}}